<mxfile host="app.diagrams.net" modified="2022-03-03T14:43:47.057Z" agent="5.0 (Windows)" etag="jk0bjV-cxvsvIQr3MS_5" version="16.6.5" type="github">
  <diagram id="Yw2JMVggin_V3PLSZ188" name="Page-1">
    <mxGraphModel dx="1038" dy="536" grid="1" gridSize="10" guides="1" tooltips="1" connect="1" arrows="1" fold="1" page="1" pageScale="1" pageWidth="827" pageHeight="1169" math="0" shadow="0">
      <root>
        <mxCell id="0" />
        <mxCell id="1" parent="0" />
        <mxCell id="HPY1EL33RM45TxH1_8nU-1" value="MES 主服务" style="rounded=1;whiteSpace=wrap;html=1;fillColor=#1ba1e2;fontColor=#ffffff;strokeColor=#006EAF;" parent="1" vertex="1">
          <mxGeometry x="160" y="310" width="550" height="60" as="geometry" />
        </mxCell>
        <mxCell id="hAIoZ5YtyRnOAtvdXItw-1" style="edgeStyle=orthogonalEdgeStyle;rounded=0;orthogonalLoop=1;jettySize=auto;html=1;" edge="1" parent="1" source="HPY1EL33RM45TxH1_8nU-2" target="HPY1EL33RM45TxH1_8nU-1">
          <mxGeometry relative="1" as="geometry" />
        </mxCell>
        <mxCell id="HPY1EL33RM45TxH1_8nU-2" value="MySQL 数据服务" style="shape=trapezoid;perimeter=trapezoidPerimeter;whiteSpace=wrap;html=1;fixedSize=1;fillColor=#f8cecc;strokeColor=#b85450;" parent="1" vertex="1">
          <mxGeometry x="100" y="430" width="120" height="60" as="geometry" />
        </mxCell>
        <mxCell id="hAIoZ5YtyRnOAtvdXItw-5" style="edgeStyle=orthogonalEdgeStyle;rounded=0;orthogonalLoop=1;jettySize=auto;html=1;entryX=0.5;entryY=0;entryDx=0;entryDy=0;" edge="1" parent="1" source="HPY1EL33RM45TxH1_8nU-3" target="HPY1EL33RM45TxH1_8nU-1">
          <mxGeometry relative="1" as="geometry" />
        </mxCell>
        <mxCell id="HPY1EL33RM45TxH1_8nU-3" value="MQTT Broker" style="shape=trapezoid;perimeter=trapezoidPerimeter;whiteSpace=wrap;html=1;fixedSize=1;rotation=0;fillColor=#a20025;strokeColor=#6F0000;fontColor=#ffffff;" parent="1" vertex="1">
          <mxGeometry x="375" y="210" width="120" height="60" as="geometry" />
        </mxCell>
        <mxCell id="hAIoZ5YtyRnOAtvdXItw-2" style="edgeStyle=orthogonalEdgeStyle;rounded=0;orthogonalLoop=1;jettySize=auto;html=1;entryX=0.5;entryY=1;entryDx=0;entryDy=0;" edge="1" parent="1" source="HPY1EL33RM45TxH1_8nU-4" target="HPY1EL33RM45TxH1_8nU-1">
          <mxGeometry relative="1" as="geometry" />
        </mxCell>
        <mxCell id="HPY1EL33RM45TxH1_8nU-4" value="Redis缓存服务" style="shape=trapezoid;perimeter=trapezoidPerimeter;whiteSpace=wrap;html=1;fixedSize=1;fillColor=#f8cecc;strokeColor=#b85450;" parent="1" vertex="1">
          <mxGeometry x="375" y="430" width="120" height="60" as="geometry" />
        </mxCell>
        <mxCell id="hAIoZ5YtyRnOAtvdXItw-3" style="edgeStyle=orthogonalEdgeStyle;rounded=0;orthogonalLoop=1;jettySize=auto;html=1;entryX=0.5;entryY=1;entryDx=0;entryDy=0;" edge="1" parent="1" source="HPY1EL33RM45TxH1_8nU-5" target="HPY1EL33RM45TxH1_8nU-1">
          <mxGeometry relative="1" as="geometry" />
        </mxCell>
        <mxCell id="HPY1EL33RM45TxH1_8nU-5" value="Minio文件服务" style="shape=trapezoid;perimeter=trapezoidPerimeter;whiteSpace=wrap;html=1;fixedSize=1;fillColor=#f8cecc;strokeColor=#b85450;" parent="1" vertex="1">
          <mxGeometry x="650" y="430" width="120" height="60" as="geometry" />
        </mxCell>
        <mxCell id="hAIoZ5YtyRnOAtvdXItw-6" style="edgeStyle=orthogonalEdgeStyle;rounded=0;orthogonalLoop=1;jettySize=auto;html=1;exitX=0.5;exitY=1;exitDx=0;exitDy=0;entryX=0.5;entryY=0;entryDx=0;entryDy=0;" edge="1" parent="1" source="HPY1EL33RM45TxH1_8nU-7" target="HPY1EL33RM45TxH1_8nU-3">
          <mxGeometry relative="1" as="geometry" />
        </mxCell>
        <mxCell id="HPY1EL33RM45TxH1_8nU-7" value="工位一体机-01" style="rounded=0;whiteSpace=wrap;html=1;fillColor=#60a917;fontColor=#ffffff;strokeColor=#2D7600;" parent="1" vertex="1">
          <mxGeometry x="70" y="60" width="120" height="60" as="geometry" />
        </mxCell>
        <mxCell id="hAIoZ5YtyRnOAtvdXItw-7" style="edgeStyle=orthogonalEdgeStyle;rounded=0;orthogonalLoop=1;jettySize=auto;html=1;exitX=0.5;exitY=1;exitDx=0;exitDy=0;entryX=0.5;entryY=0;entryDx=0;entryDy=0;" edge="1" parent="1" source="HPY1EL33RM45TxH1_8nU-8" target="HPY1EL33RM45TxH1_8nU-3">
          <mxGeometry relative="1" as="geometry" />
        </mxCell>
        <mxCell id="HPY1EL33RM45TxH1_8nU-8" value="工位一体机-02" style="rounded=0;whiteSpace=wrap;html=1;fillColor=#60a917;fontColor=#ffffff;strokeColor=#2D7600;" parent="1" vertex="1">
          <mxGeometry x="270" y="60" width="120" height="60" as="geometry" />
        </mxCell>
        <mxCell id="hAIoZ5YtyRnOAtvdXItw-9" style="edgeStyle=orthogonalEdgeStyle;rounded=0;orthogonalLoop=1;jettySize=auto;html=1;entryX=0.5;entryY=0;entryDx=0;entryDy=0;" edge="1" parent="1" source="HPY1EL33RM45TxH1_8nU-9" target="HPY1EL33RM45TxH1_8nU-3">
          <mxGeometry relative="1" as="geometry" />
        </mxCell>
        <mxCell id="HPY1EL33RM45TxH1_8nU-9" value="工位一体机-03" style="rounded=0;whiteSpace=wrap;html=1;fillColor=#60a917;fontColor=#ffffff;strokeColor=#2D7600;" parent="1" vertex="1">
          <mxGeometry x="495" y="60" width="120" height="60" as="geometry" />
        </mxCell>
        <mxCell id="hAIoZ5YtyRnOAtvdXItw-10" style="edgeStyle=orthogonalEdgeStyle;rounded=0;orthogonalLoop=1;jettySize=auto;html=1;entryX=0.5;entryY=0;entryDx=0;entryDy=0;" edge="1" parent="1">
          <mxGeometry relative="1" as="geometry">
            <mxPoint x="750" y="125" as="sourcePoint" />
            <mxPoint x="435" y="215" as="targetPoint" />
            <Array as="points">
              <mxPoint x="750" y="165" />
              <mxPoint x="435" y="165" />
            </Array>
          </mxGeometry>
        </mxCell>
        <mxCell id="HPY1EL33RM45TxH1_8nU-10" value="工位一体机-04" style="rounded=0;whiteSpace=wrap;html=1;fillColor=#60a917;fontColor=#ffffff;strokeColor=#2D7600;" parent="1" vertex="1">
          <mxGeometry x="690" y="60" width="120" height="60" as="geometry" />
        </mxCell>
      </root>
    </mxGraphModel>
  </diagram>
</mxfile>
